<?xml version="1.0" standalone="no"?>
<!DOCTYPE svg PUBLIC "-//W3C//DTD SVG 20010904//EN"
 "http://www.w3.org/TR/2001/REC-SVG-20010904/DTD/svg10.dtd">
<svg version="1.0" xmlns="http://www.w3.org/2000/svg"
 width="700.000000pt" height="700.000000pt" viewBox="0 0 700.000000 700.000000"
 preserveAspectRatio="xMidYMid meet">
<metadata>
Created by potrace 1.14, written by Peter Selinger 2001-2017
</metadata>
<g transform="translate(0.000000,700.000000) scale(0.100000,-0.100000)"
fill="#000000" stroke="none">
<path d="M3354 6985 c-70 -15 -145 -45 -224 -91 -30 -17 -190 -108 -355 -201
-165 -94 -316 -180 -335 -191 -373 -212 -463 -262 -471 -262 -5 0 -9 -4 -9
-10 0 -5 -4 -10 -9 -10 -5 0 -51 -24 -103 -54 -51 -29 -113 -64 -138 -78 -25
-14 -85 -48 -134 -77 -49 -28 -90 -51 -92 -51 -1 0 -35 -19 -76 -43 -40 -24
-80 -47 -88 -51 -8 -4 -24 -12 -35 -19 -11 -7 -67 -39 -125 -72 -58 -33 -113
-64 -122 -70 -9 -5 -40 -23 -68 -38 -63 -34 -181 -118 -229 -162 -20 -19 -45
-42 -56 -52 -42 -37 -134 -151 -181 -223 -63 -96 -126 -232 -159 -346 -54
-188 -54 -172 -51 -1464 2 -1178 2 -1196 23 -1290 42 -187 104 -332 207 -485
62 -91 197 -236 271 -290 22 -17 42 -32 45 -35 6 -7 59 -41 85 -56 11 -6 99
-56 195 -111 96 -55 195 -111 220 -125 25 -14 77 -44 117 -67 39 -22 89 -50
110 -62 21 -12 166 -94 323 -184 157 -89 305 -173 330 -187 25 -14 172 -98
328 -187 347 -198 409 -229 542 -274 264 -88 591 -84 855 10 73 27 328 155
356 179 8 8 18 14 21 14 3 0 81 43 174 96 93 53 189 108 214 122 25 14 87 49
138 78 52 30 98 54 103 54 5 0 9 5 9 10 0 6 5 10 11 10 6 0 52 24 102 54 51
29 112 64 137 78 25 14 110 62 190 108 80 45 165 94 190 108 435 244 558 318
635 382 141 118 289 307 358 460 34 76 82 212 92 263 10 54 14 72 22 102 4 17
8 539 10 1160 2 1222 3 1196 -52 1361 -155 464 -669 742 -1145 619 -101 -26
-227 -84 -392 -180 -15 -8 -252 -141 -447 -251 -31 -17 -159 -90 -286 -161
-260 -147 -305 -172 -372 -209 -113 -63 -306 -171 -408 -229 -60 -34 -117 -65
-125 -69 -31 -14 -359 -202 -385 -221 -151 -108 -257 -282 -282 -460 -31 -223
39 -430 201 -590 144 -142 307 -206 511 -200 155 5 211 25 497 186 288 161
372 209 388 219 8 6 22 13 30 17 8 4 60 32 115 64 55 31 181 101 280 156 99
56 248 139 331 185 l151 85 -1 -601 c-1 -578 -2 -602 -20 -631 -21 -31 -52
-65 -60 -65 -2 0 -37 -19 -78 -43 -40 -24 -93 -55 -118 -69 -25 -14 -292 -166
-595 -338 -302 -172 -626 -356 -720 -409 -226 -128 -225 -128 -420 -16 -77 44
-153 87 -170 96 -16 9 -109 61 -205 116 -96 55 -195 111 -220 125 -25 14 -116
66 -204 117 -87 50 -160 91 -161 91 -2 0 -64 36 -140 80 -76 44 -139 80 -140
80 -14 0 -324 186 -338 203 -42 51 -41 37 -43 1032 -2 1030 -3 998 48 1052 18
20 93 65 248 151 25 14 137 78 250 142 113 64 232 132 265 150 33 18 101 56
150 85 50 29 110 64 135 77 37 21 168 95 265 150 11 6 162 92 335 191 173 99
332 189 353 201 21 12 46 26 55 31 86 50 119 70 128 79 7 6 31 26 54 45 49 40
132 155 164 226 151 337 7 734 -324 901 -50 25 -78 35 -150 55 -58 16 -239 19
-306 4z"/>
</g>
</svg>
